<?xml version="1.0" encoding="iso-8859-1"?>
<!DOCTYPE svg PUBLIC "-//W3C//DTD SVG 1.1//EN" "http://www.w3.org/Graphics/SVG/1.1/DTD/svg11.dtd">
<svg 
 version="1.1" xmlns="http://www.w3.org/2000/svg" xmlns:xlink="http://www.w3.org/1999/xlink" x="0px" y="0px" width="512px"
	 height="512px" viewBox="0 0 512 512" style="enable-background:new 0 0 512 512;" xml:space="preserve"
><g id="7935ec95c421cee6d86eb22ecd149959"><g></g><g fill="#467fd7"><path style="display: inline; fill-rule: evenodd; clip-rule: evenodd;" d="M454.723,114.056H416.87H95.129
		c-10.409,0-18.926-8.517-18.926-18.926c0-10.409,8.517-18.926,18.926-18.926H416.87V38.352c0-21.688-17.033-37.852-37.852-37.852
		L76.203,38.352c-20.818,0-37.852,17.743-37.852,39.43v394.291c0,21.684,17.033,39.427,37.852,39.427h302.815
		c20.818,0,37.852-17.743,37.852-39.427V270.194l41.638-31.228c8.328-6.247,15.141-19.873,15.141-30.282v-75.704
		C473.648,122.572,465.132,114.056,454.723,114.056z M360.093,435.796H111.719v-37.034c0.965-4.366,2.392-8.521,4.307-12.461
		c1.597-3.438,3.789-6.728,6.554-9.977c2.772-3.265,6.329-5.678,10.698-7.286c2.236-0.735,71.937-30.289,75.234-31.771v-10.712
		c-0.207-0.839-0.555-2.151-1.028-3.911c-0.491-1.76-0.986-3.537-1.53-5.356c-0.624-2.11-1.382-4.406-2.232-6.86
		c-3.083-5.752-5.537-12.261-7.345-19.558s-2.725-15.049-2.725-23.244c0-10.764,1.153-19.868,3.434-27.316
		c2.3-7.46,5.412-13.525,9.36-18.205c3.933-4.688,8.535-8.103,13.817-10.225c5.264-2.14,10.931-3.194,17.004-3.194
		c5.966,0,11.577,1.021,16.845,3.113c5.278,2.081,9.906,5.426,13.898,10.054c3.996,4.64,7.131,10.705,9.43,18.224
		c2.299,7.489,3.434,16.697,3.434,27.55c0,7.996-0.879,15.566-2.635,22.76c-1.76,7.197-4.188,13.654-7.268,19.425
		c-0.851,2.64-1.656,5.146-2.392,7.478c-0.64,2.041-1.231,3.985-1.76,5.822c-0.539,1.889-0.798,3.253-0.798,4.096v11.171
		c3.408,1.485,48.457,20.999,52.711,22.781c4.251,1.737,27.901,11.902,30.674,15.167c2.765,3.249,4.938,6.539,6.539,9.977
		c1.915,3.94,3.301,8.095,4.147,12.461V435.796z"></path></g></g></svg>